<?xml version="1.0" encoding="UTF-8"?>
<svg width="109px" height="109px" viewBox="0 0 109 109" version="1.1" xmlns="http://www.w3.org/2000/svg" xmlns:xlink="http://www.w3.org/1999/xlink">
    <!-- Generator: Sketch 59.1 (86144) - https://sketch.com -->
    <title>logo+border</title>
    <desc>Created with Sketch.</desc>
    <g id="Landing-Page" stroke="none" stroke-width="1" fill="none" fill-rule="evenodd">
        <g id="landing-page-v3" transform="translate(-364.000000, -42.000000)">
            <g id="logo+border" transform="translate(364.000000, 42.000000)">
                <circle id="Oval" fill="#000000" cx="54.5" cy="54.5" r="54.5"></circle>
                <g id="Logo" transform="translate(4.000000, 4.000000)">
                    <circle id="Oval" fill="#F8E71C" cx="50.4370302" cy="50.4370302" r="49.5030111"></circle>
                    <path d="M50.4370302,0 C78.2926328,0 100.87406,22.5814276 100.87406,50.4370302 C100.87406,78.2926328 78.2926328,100.87406 50.4370302,100.87406 C22.5814276,100.87406 0,78.2926328 0,50.4370302 C0,22.5814276 22.5814276,0 50.4370302,0 Z M50.4370302,3.59408766 C41.5378645,3.59408766 33.2183055,6.07567864 26.132611,10.3846026 L26.1834799,10.3765521 L26.1834799,10.3765521 L26.5323053,10.3190026 C37.0270037,8.68310901 44.6664895,15.8593699 49.4507628,31.8477851 L49.4507628,31.8477851 L41.4975139,58.7843841 C38.4002559,45.1174592 32.1330349,33.5938213 21.7609988,37.0224014 C11.3889626,40.4509816 10.359226,63.5402421 26.5323053,83.4875317 C37.2250795,95.0790314 51.3105273,98.3000121 68.7886486,93.150474 L68.5525327,93.166966 C60.0234318,93.7592621 54.2250714,91.8752123 51.1574517,87.5148167 L51.1574517,87.5148167 L57.1060471,68.0522142 C62.9809131,69.6710303 71.9847089,72.4442654 81.0775635,61.9498102 C87.9634236,54.7939255 93.6230078,34.5700978 82.3046075,19.5278763 C76.3534924,11.6188088 70.8004976,7.86825928 64.8647818,5.85967247 C63.4124333,5.38834697 61.9289159,4.98761335 60.4182228,4.65975994 C59.2512905,4.4150231 58.0647974,4.21049587 56.8525316,4.03070327 C54.7554065,3.74253018 52.6135537,3.59408766 50.4370302,3.59408766 Z M69.2124941,20.2466938 L49.7007075,85.6350891 L42.2904315,62.4173224 L54.7499354,20.2466938 L69.2124941,20.2466938 Z" id="Combined-Shape" fill="#D0021B" fill-rule="nonzero"></path>
                </g>
            </g>
        </g>
    </g>
</svg>