<?xml version="1.0" encoding="UTF-8"?>
<svg width="38px" height="38px" viewBox="0 0 38 38" version="1.1" xmlns="http://www.w3.org/2000/svg" xmlns:xlink="http://www.w3.org/1999/xlink">
    <!-- Generator: Sketch 59.1 (86144) - https://sketch.com -->
    <title>rocket-bg-0</title>
    <desc>Created with Sketch.</desc>
    <g id="Landing-Page" stroke="none" stroke-width="1" fill="none" fill-rule="evenodd">
        <g id="landing-page-v3" transform="translate(-281.000000, -608.000000)" fill="#4A4A4A" fill-rule="nonzero">
            <g id="rocket-bg-0" transform="translate(299.000000, 626.500000) scale(-1, 1) rotate(45.000000) translate(-299.000000, -626.500000) translate(284.000000, 602.000000)">
                <g id="Group">
                    <path d="M9.8795233,5.49732245 C11.2885645,3.45831123 12.8016877,1.35266761 14.9554381,0.0472104005 C17.079209,1.32029761 18.5774918,3.38849163 19.9664138,5.39134805 C23.237975,10.3468465 25.2381422,16.2990422 24.8346626,22.281317 C25.8919167,23.1675578 26.9797479,24.0184406 28.0212651,24.9228086 C29.5163607,26.2969899 30.2144571,28.4405811 29.8545027,30.4333779 C29.3529171,32.9507679 28.8708531,35.4738351 28.3399851,37.9843528 C28.0448703,39.2759656 26.2973883,39.8672908 25.2700142,39.0421048 C23.5647626,37.6187212 21.9019406,36.142948 20.197187,34.7177715 C18.907367,35.9589867 17.1939482,36.7866628 15.3950725,36.8863624 C13.3242889,37.032376 11.2741225,36.1736248 9.77285169,34.7706591 C8.54976368,35.7069987 7.41571807,36.8309848 6.22071726,37.8338572 C5.64313685,38.2979932 5.16286565,38.9079436 4.47931084,39.2248708 C3.41956683,39.6795448 2.05484762,39.00097 1.81530962,37.8618448 C1.26960121,35.4075015 0.699490807,32.9575407 0.169917602,30.4994127 C-0.260454003,28.4199639 0.501784805,26.1558567 2.10405002,24.7617554 C3.03162483,23.9826842 3.97214764,23.2192502 4.91705285,22.4613938 C5.18029565,22.3229498 5.04802685,22.0036322 5.06296685,21.7690742 C4.78129805,15.9971546 6.75288007,10.2919669 9.8795233,5.49732245 Z M11.5531021,13.0999897 C10.3156717,14.6929921 10.4653705,17.1604826 11.9005069,18.583169 C13.4199049,20.2573454 16.297847,20.3184002 17.8870646,18.711653 C19.1138378,17.5908542 19.5286718,15.7091114 18.9431234,14.1628213 C18.4065782,12.6721081 16.970147,11.5537993 15.3902917,11.4147577 C13.9313509,11.2468321 12.4207177,11.9180365 11.5531021,13.0999897 Z" id="Shape"></path>
                    <path d="M9.28899489,39.9215728 C9.26778009,39.1978792 10.1684629,38.7002776 10.7772181,39.0832396 C13.3538701,40.4099116 16.5567074,40.409314 19.1332598,39.0825424 C19.724585,38.7195004 20.6009654,39.1555492 20.6227778,39.8597212 C20.631443,41.3967484 20.6332358,42.9353692 20.6251682,44.4728944 C20.6370206,45.2231812 19.645901,45.7016596 19.0633406,45.232444 C18.6199214,44.8414144 18.2200274,44.4016804 17.7934406,43.9913284 C17.118551,45.306148 16.4824058,46.6408877 15.8019386,47.9526197 C15.475151,48.5776097 14.4540517,48.5818925 14.1209893,47.9630777 C13.4367373,46.6488557 12.8049745,45.306148 12.1169377,43.9932208 C11.6965261,44.407258 11.2954369,44.8446016 10.8526153,45.2350336 C10.2725449,45.70654 9.28331769,45.2188984 9.29138529,44.4733924 C9.27903489,42.956584 9.28710249,41.4390784 9.28899489,39.9215728 Z" id="Path" opacity="0.737444196"></path>
                </g>
                <circle id="Oval" cx="14.9231677" cy="15.6878966" r="2.07287522"></circle>
            </g>
        </g>
    </g>
</svg>