<?xml version="1.0" encoding="UTF-8"?>
<svg width="24px" height="17px" viewBox="0 0 24 17" version="1.1" xmlns="http://www.w3.org/2000/svg" xmlns:xlink="http://www.w3.org/1999/xlink">
    <!-- Generator: Sketch 59.1 (86144) - https://sketch.com -->
    <title>discord</title>
    <desc>Created with Sketch.</desc>
    <g id="Landing-Page" stroke="none" stroke-width="1" fill="none" fill-rule="evenodd">
        <g id="landing-page-v3" transform="translate(-171.000000, -336.000000)" fill-rule="nonzero">
            <g id="Socials" transform="translate(166.000000, 254.000000)">
                <g id="discord" transform="translate(5.000000, 82.000000)">
                    <path d="M17.4977161,16.8823837 L16.1808027,15.3146296 C18.7519194,14.6248178 19.755282,12.8689333 19.755282,12.8689333 C16.4943535,15.9417312 7.58951054,16.0671515 4.14045162,12.8689333 C4.14045162,12.8689333 5.01839389,14.4993975 7.6522207,15.3146296 L6.20988697,16.8823837 C1.82017563,16.8196735 0.127001253,13.8722959 0.127001253,13.8722959 C0.127001253,7.35043902 3.01166871,2.14549557 3.01166871,2.14549557 C5.95904632,0.0760602246 8.65558329,0.0760602246 8.65558329,0.0760602246 L8.84371378,0.326900873 C5.20652438,1.33026347 3.63877033,2.96072768 3.63877033,2.96072768 C7.90306135,0.0760602246 16.682484,0.326900873 20.1315429,2.96072768 C20.1942531,2.89801752 18.0621076,1.20484314 14.738469,0.326900873 L15.0520198,0.0760602246 C15.0520198,0.0760602246 17.7485568,0.0760602246 20.6959344,2.14549557 C20.6959344,2.14549557 23.5806019,7.35043902 23.5806019,13.8722959 C23.5806019,13.8722959 21.8874275,16.8196735 17.4977161,16.8823837 Z" id="Path" fill="#FFFFFF"></path>
                    <ellipse id="Oval" fill="#000000" cx="8.09119183" cy="9.79613534" rx="2.06943535" ry="2.19485567"></ellipse>
                    <ellipse id="Oval" fill="#000000" cx="15.3655706" cy="9.79613534" rx="2.06943535" ry="2.19485567"></ellipse>
                </g>
            </g>
        </g>
    </g>
</svg>