<?xml version="1.0" encoding="UTF-8"?>
<svg width="23px" height="27px" viewBox="0 0 23 27" version="1.1" xmlns="http://www.w3.org/2000/svg" xmlns:xlink="http://www.w3.org/1999/xlink">
    <!-- Generator: Sketch 59.1 (86144) - https://sketch.com -->
    <title>gihub</title>
    <desc>Created with Sketch.</desc>
    <g id="Landing-Page" stroke="none" stroke-width="1" fill="none" fill-rule="evenodd">
        <g id="landing-page-v3" transform="translate(-171.000000, -367.000000)" fill="#FFFFFF" fill-rule="nonzero">
            <g id="Socials" transform="translate(166.000000, 254.000000)">
                <g id="gihub" transform="translate(5.000000, 113.500000)">
                    <path d="M16.8079044,24.992371 C17.6858466,24.992371 17.5604263,26.0584437 17.5604263,26.0584437 L6.14717681,26.0584437 C6.14717681,26.0584437 6.02175648,24.992371 6.89969875,24.992371 C7.71493086,24.992371 7.90306135,24.61611 7.90306135,24.239849 L7.84035118,21.1043409 C3.38792968,22.1077035 2.44727725,19.3484564 2.44727725,19.3484564 C1.6947553,17.4671515 0.691392711,17.0281804 0.691392711,17.0281804 C-0.813651178,16.0248178 0.754102873,16.0248178 0.754102873,16.0248178 C2.38456709,16.1502381 3.26250935,17.655282 3.26250935,17.655282 C4.64213292,20.1009783 6.96240892,19.4111665 7.90306135,19.0349056 C8.02848167,17.9688328 8.4674528,17.279021 8.90642394,16.8400499 C5.3319447,16.4637889 1.63204514,15.0841654 1.63204514,8.93856948 C1.63204514,7.18268495 2.25914676,5.74035122 3.26250935,4.6115683 C3.07437887,4.23530733 2.57269757,2.60484312 3.45063984,0.409987446 C3.45063984,0.409987446 4.76755324,-0.0289836883 7.84035118,2.04045166 C10.474178,1.28792971 13.2334251,1.28792971 15.8672519,2.04045166 C18.9400499,-0.0289836883 20.2569633,0.409987446 20.2569633,0.409987446 C21.1349055,2.60484312 20.6332242,4.23530733 20.4450938,4.6115683 C21.4484563,5.74035122 22.075558,7.18268495 22.075558,8.93856948 C22.075558,15.0841654 18.3129482,16.4637889 14.738469,16.8400499 C15.3655706,17.3417312 15.8672519,18.3450938 15.8672519,19.8501377 L15.8045418,24.239849 C15.8045418,24.61611 15.9926722,24.992371 16.8079044,24.992371 Z" id="Path"></path>
                </g>
            </g>
        </g>
    </g>
</svg>