<?xml version="1.0" encoding="UTF-8"?>
<svg width="22px" height="18px" viewBox="0 0 22 18" version="1.1" xmlns="http://www.w3.org/2000/svg" xmlns:xlink="http://www.w3.org/1999/xlink">
    <!-- Generator: Sketch 59.1 (86144) - https://sketch.com -->
    <title>medium</title>
    <desc>Created with Sketch.</desc>
    <g id="Landing-Page" stroke="none" stroke-width="1" fill="none" fill-rule="evenodd">
        <g id="landing-page-v3" transform="translate(-171.000000, -295.000000)" fill="#FFFFFF" fill-rule="nonzero">
            <g id="Socials" transform="translate(170.000000, 254.000000)">
                <g id="medium" transform="translate(1.000000, 41.500000)">
                    <path d="M2.83877026,3.84885803 C2.83877026,3.59801739 2.71334993,3.28446658 2.52521945,3.15904625 L0.581204422,0.776060093 L0.581204422,0.399799121 L6.7268003,0.399799121 L11.4300625,10.809686 L15.6316433,0.399799121 L21.4636884,0.399799121 L21.4636884,0.776060093 L19.770514,2.40652431 C19.6450937,2.46923447 19.5823835,2.65736495 19.5823835,2.84549544 L19.5823835,14.7604262 C19.5823835,14.9485567 19.6450937,15.1366872 19.770514,15.2621075 L21.4636884,16.8298616 L21.4636884,17.2061225 L13.1232368,17.2061225 L13.1232368,16.8298616 L14.8164112,15.1993974 C15.0045417,15.0112669 15.0045417,14.9485567 15.0045417,14.6977161 L15.0045417,5.10306127 L10.2385694,17.1434124 L9.61146776,17.1434124 L4.0929735,5.10306127 L4.0929735,13.1926722 C4.03026333,13.506223 4.15568366,13.882484 4.40652431,14.1333246 L6.60137998,16.8298616 L6.60137998,17.1434124 L0.330363774,17.1434124 L0.330363774,16.8298616 L2.52521945,14.1333246 C2.77606009,13.882484 2.90148042,13.506223 2.83877026,13.1926722 L2.83877026,3.84885803 Z" id="Path"></path>
                </g>
            </g>
        </g>
    </g>
</svg>