<?xml version="1.0" encoding="UTF-8"?>
<svg width="31px" height="32px" viewBox="0 0 31 32" version="1.1" xmlns="http://www.w3.org/2000/svg" xmlns:xlink="http://www.w3.org/1999/xlink">
    <!-- Generator: Sketch 59.1 (86144) - https://sketch.com -->
    <title>coinmarketcap</title>
    <desc>Created with Sketch.</desc>
    <g id="Landing-Page" stroke="none" stroke-width="1" fill="none" fill-rule="evenodd">
        <g id="landing-page-v3" transform="translate(-642.000000, -397.000000)" fill="#FFFFFF" fill-rule="nonzero">
            <g id="trading-links" transform="translate(638.000000, 251.000000)">
                <g id="coinmarketcap" transform="translate(4.000000, 146.000000)">
                    <path d="M26.6160004,18.5640003 C26.1224854,18.9040352 25.4825444,18.9470049 24.9480004,18.6760003 C24.3320004,18.3280003 24.0000004,17.5120003 24.0000004,16.4000002 L24.0000004,12.9920002 C24.0000004,11.3560002 23.3520003,10.1920002 22.2680003,9.87600015 C20.4360003,9.34000014 19.0680003,11.5840002 18.5400003,12.4280002 L15.3000002,17.6720003 L15.3000002,11.2720002 C15.2640002,9.79600015 14.7840002,8.91200013 13.8760002,8.64800013 C13.2760002,8.47200013 12.3760002,8.54400013 11.5000002,9.88000015 L4.25600006,21.5080003 C3.29215644,19.6639522 2.79239493,17.6127333 2.79991453,15.5320002 C2.79991453,8.52400013 8.40000013,2.82400004 15.3000002,2.82400004 C22.2000003,2.82400004 27.8200004,8.52400013 27.8200004,15.5320002 L27.8200004,15.5680002 C27.8200004,15.5680002 27.8200004,15.5920002 27.8200004,15.6040002 C27.8880004,16.9600003 27.4480004,18.0400003 26.6200004,18.5640003 L26.6160004,18.5640003 Z M30.6160005,15.5360002 L30.6160005,15.4680002 C30.5600005,6.9280001 23.7120004,0 15.3000002,0 C6.8880001,0 0,6.9680001 0,15.5320002 C0,24.0960004 6.8640001,31.0680005 15.3000002,31.0680005 C19.1691172,31.0680005 22.8910276,29.5847781 25.7000004,26.9240004 C26.2673953,26.3894258 26.2994869,25.4979907 25.7720004,24.9240004 C25.5270016,24.6530142 25.1840465,24.4909266 24.819136,24.4736571 C24.4542255,24.4563877 24.0974957,24.5853627 23.8280004,24.8320004 C21.3843455,27.1500088 18.1012454,28.3715219 14.7367309,28.2145062 C11.3722164,28.0574905 8.2171497,26.5355199 6,24 L12.5200002,13.5200002 L12.5200002,18.3560003 C12.5200002,20.6800003 13.4200002,21.4320003 14.1760002,21.6520003 C14.9320002,21.8720003 16.0880002,21.7200003 17.3000003,19.7520003 L20.9000003,13.9240002 C21.0120003,13.7360002 21.1200003,13.5760002 21.2160003,13.4360002 L21.2160003,16.4000002 C21.2160003,18.5720003 22.0880003,20.3080003 23.6160004,21.1640003 C25.0312354,21.9280061 26.7505591,21.8589877 28.1000004,20.9840003 C29.7800004,19.8920003 30.6960005,17.9160003 30.6000005,15.5360002 L30.6160005,15.5360002 Z" id="Shape"></path>
                </g>
            </g>
        </g>
    </g>
</svg>