<?xml version="1.0" encoding="UTF-8"?>
<svg width="31px" height="31px" viewBox="0 0 31 31" version="1.1" xmlns="http://www.w3.org/2000/svg" xmlns:xlink="http://www.w3.org/1999/xlink">
    <!-- Generator: Sketch 59.1 (86144) - https://sketch.com -->
    <title>uniswap</title>
    <desc>Created with Sketch.</desc>
    <defs>
        <circle id="path-1" cx="15.0299982" cy="15.0299982" r="15.0299982"></circle>
    </defs>
    <g id="Landing-Page" stroke="none" stroke-width="1" fill="none" fill-rule="evenodd">
        <g id="landing-page-v3" transform="translate(-638.000000, -251.000000)">
            <g id="trading-links" transform="translate(638.000000, 251.000000)">
                <g id="uniswap">
                    <mask id="mask-2" fill="white">
                        <use xlink:href="#path-1"></use>
                    </mask>
                    <use id="Oval" fill="#FFFFFF" xlink:href="#path-1"></use>
                    <g id="uniswap-uni-logo" mask="url(#mask-2)" fill="#FF007A">
                        <g transform="translate(3.960000, 1.980000)">
                            <path d="M8.44199885,5.55659924 C8.17739889,5.51879925 8.16479889,5.50619925 8.29079887,5.49359925 C8.53019884,5.45579926 9.08459876,5.50619925 9.47519871,5.59439924 C10.3823986,5.80859921 11.2013985,6.36299913 12.0707984,7.333199 L12.2975983,7.59779896 L12.6251983,7.54739897 C14.0237981,7.320599 15.4601979,7.49699898 16.6571977,8.0513989 C16.9847977,8.20259888 17.5013976,8.50499884 17.5643976,8.58059883 C17.5895976,8.60579883 17.6273976,8.76959881 17.6525976,8.93339878 C17.7407976,9.5255987 17.7029976,9.96659864 17.5139976,10.3067986 C17.4131976,10.4957986 17.4131976,10.5461986 17.4761976,10.7099985 C17.5265976,10.8359985 17.6777976,10.9241985 17.8163976,10.9241985 C18.1187975,10.9241985 18.4337975,10.4453986 18.5849975,9.77759867 L18.6479975,9.5129987 L18.7613974,9.63899869 C19.4039974,10.3571986 19.9079973,11.3525985 19.9835973,12.0581984 L20.0087973,12.2471983 L19.8953973,12.0833984 C19.7063973,11.7935984 19.5299973,11.6045984 19.2905974,11.4407984 C18.8621974,11.1509985 18.4085975,11.0627985 17.2115977,10.9997985 C16.1279978,10.9367985 15.5105979,10.8485985 14.905798,10.6469985 C13.8725981,10.3067986 13.3433982,9.86579866 12.1211983,8.24039888 C11.5793984,7.52219898 11.2391985,7.13159903 10.8989985,6.80399907 C10.1555986,6.08579917 9.41219872,5.70779922 8.44199885,5.55659924 Z" id="Path" fill-rule="nonzero"></path>
                            <path d="M17.8289976,7.15679902 C17.8541976,6.67799909 17.9171976,6.36299913 18.0557975,6.07319917 C18.1061975,5.95979919 18.1565975,5.8589992 18.1691975,5.8589992 C18.1817975,5.8589992 18.1565975,5.94719919 18.1187975,6.04799918 C18.0179975,6.32519914 18.0053975,6.71579909 18.0683975,7.15679902 C18.1565975,7.72379895 18.1943975,7.79939894 18.7991974,8.41679885 C19.0763974,8.70659881 19.4039974,9.07199876 19.5299973,9.22319874 L19.7441973,9.50039871 L19.5299973,9.29879873 C19.2653974,9.04679877 18.6605975,8.56799883 18.5219975,8.50499884 C18.4337975,8.45459885 18.4211975,8.45459885 18.3581975,8.51759884 C18.3077975,8.56799883 18.2951975,8.64359882 18.2951975,9.00899877 C18.2825975,9.5759987 18.2069975,9.92879865 18.0179975,10.2941986 C17.9171976,10.4831986 17.9045976,10.4453986 17.9927975,10.2311986 C18.0557975,10.0673986 18.0683975,9.99179864 18.0683975,9.44999871 C18.0683975,8.35379886 17.9423976,8.0891989 17.1737977,7.64819896 C16.9847977,7.53479897 16.6571977,7.370999 16.4681978,7.28279901 C16.2665978,7.19459902 16.1153978,7.11899903 16.1279978,7.11899903 C16.1531978,7.09379903 16.8965977,7.307999 17.1863977,7.43399899 C17.6273976,7.61039896 17.7029976,7.62299896 17.7533976,7.61039896 C17.7911976,7.57259897 17.8163976,7.47179898 17.8289976,7.15679902 Z" id="Path" fill-rule="nonzero"></path>
                            <path d="M8.95859878,9.03419877 C8.42939885,8.30339887 8.0891989,7.16939902 8.16479889,6.32519914 L8.18999888,6.06059917 L8.31599887,6.08579917 C8.54279884,6.12359917 8.93339878,6.27479915 9.12239876,6.38819913 C9.62639869,6.69059909 9.85319866,7.10639903 10.0673986,8.13959889 C10.1303986,8.44199885 10.2185986,8.7947988 10.2563986,8.90819879 C10.3193986,9.09719876 10.5587986,9.5381987 10.7603985,9.81539866 C10.8989985,10.0169986 10.8107985,10.1177986 10.4957986,10.0925986 C10.0169986,10.0421986 9.37439872,9.60119869 8.95859878,9.03419877 Z" id="Path" fill-rule="nonzero"></path>
                            <path d="M17.1863977,14.515198 C14.691598,13.5071982 13.8095981,12.6377983 13.8095981,11.1635985 C13.8095981,10.9493985 13.8221981,10.7729985 13.8221981,10.7729985 C13.8347981,10.7729985 13.9229981,10.8485985 14.0363981,10.9367985 C14.540398,11.3399985 15.1073979,11.5163984 16.6823977,11.7431984 C17.6021976,11.8817984 18.1313975,11.9825984 18.6101975,12.1463983 C20.1347973,12.6503983 21.0797971,13.6835981 21.3065971,15.0821979 C21.3695971,15.4853979 21.3317971,16.2539978 21.2309971,16.6571977 C21.1427971,16.9721977 20.8907972,17.5517976 20.8277972,17.5643976 C20.8151972,17.5643976 20.7899972,17.5013976 20.7899972,17.4005976 C20.7647972,16.8713977 20.5001972,16.3673978 20.0591973,15.9767978 C19.5299973,15.5231979 18.8495974,15.1829979 17.1863977,14.515198 Z" id="Path" fill-rule="nonzero"></path>
                            <path d="M15.4223979,14.930998 C15.3971979,14.741998 15.3341979,14.502598 15.2963979,14.401798 L15.2333979,14.2127981 L15.3467979,14.351398 C15.5105979,14.540398 15.6365979,14.767198 15.7499979,15.0821979 C15.8381978,15.3215979 15.8381978,15.3971979 15.8381978,15.7877978 C15.8381978,16.1657978 15.8255978,16.2539978 15.7499979,16.4681978 C15.6239979,16.8083977 15.4727979,17.0477977 15.2207979,17.3123976 C14.767198,17.7785976 14.1749981,18.0305975 13.3307982,18.1439975 C13.1795982,18.1565975 12.7511983,18.1943975 12.3731983,18.2195975 C11.4281984,18.2699975 10.7981985,18.3707975 10.2311986,18.5723975 C10.1555986,18.5975975 10.0799986,18.6227975 10.0673986,18.6101975 C10.0421986,18.5849975 10.4327986,18.3581975 10.7477985,18.2069975 C11.1887985,17.9927975 11.6423984,17.8793976 12.6377983,17.7029976 C13.1291982,17.6273976 13.6331981,17.5265976 13.7591981,17.4761976 C15.006598,17.0855977 15.6239979,16.1153978 15.4223979,14.930998 Z" id="Path" fill-rule="nonzero"></path>
                            <path d="M16.5689977,16.9595977 C16.2413978,16.2413978 16.1657978,15.5609979 16.3421978,14.918398 C16.3673978,14.855398 16.3925978,14.792398 16.4177978,14.792398 C16.4429978,14.792398 16.5185977,14.830198 16.5941977,14.880598 C16.7453977,14.981398 17.0603977,15.1577979 17.8667976,15.5987979 C18.8873974,16.1531978 19.4669973,16.5815977 19.8701973,17.0729977 C20.2229972,17.5013976 20.4371972,17.9927975 20.5379972,18.5975975 C20.6009972,18.9377974 20.5631972,19.7567973 20.4749972,20.0969973 C20.1977972,21.1679971 19.5677973,22.024797 18.6479975,22.5161969 C18.5093975,22.5917969 18.3959975,22.6421969 18.3833975,22.6421969 C18.3707975,22.6421969 18.4211975,22.5161969 18.4967975,22.364997 C18.7991974,21.722397 18.8369974,21.1049971 18.6101975,20.4119972 C18.4715975,19.9835973 18.1817975,19.4669973 17.6021976,18.5975975 C16.9091977,17.5895976 16.7453977,17.3249976 16.5689977,16.9595977 Z" id="Path" fill-rule="nonzero"></path>
                            <path d="M7.18199902,20.8151972 C8.11439889,20.0339973 9.26099874,19.4795973 10.3193986,19.3031974 C10.7729985,19.2275974 11.5289984,19.2527974 11.9447984,19.3661974 C12.6125983,19.5425973 13.2173982,19.9205973 13.5323982,20.3867972 C13.8347981,20.8403972 13.9733981,21.2309971 14.1119981,22.100397 C14.1623981,22.4405969 14.2253981,22.7933969 14.2379981,22.8689969 C14.338798,23.3225968 14.540398,23.6753968 14.792398,23.8643967 C15.1829979,24.1541967 15.8633978,24.1667967 16.5311977,23.9147967 C16.6445977,23.8769967 16.7453977,23.8391968 16.7453977,23.8517968 C16.7705977,23.8769967 16.4303978,24.1037967 16.2035978,24.2171967 C15.8885978,24.3809967 15.6365979,24.4313967 15.2963979,24.4313967 C14.691598,24.4313967 14.1749981,24.1163967 13.7591981,23.4863968 C13.6709981,23.3603968 13.4945982,22.9949969 13.3433982,22.6547969 C12.9023982,21.6341971 12.6755983,21.3317971 12.1589983,20.9915971 C11.7053984,20.7017972 11.1257985,20.6387972 10.6847985,20.8529972 C10.1051986,21.1301971 9.95399864,21.873597 10.3571986,22.327197 C10.5209986,22.5161969 10.8233985,22.6673969 11.0753985,22.7051969 C11.5415984,22.7681969 11.9447984,22.4027969 11.9447984,21.936597 C11.9447984,21.6341971 11.8313984,21.4577971 11.5289984,21.3191971 C11.1257985,21.1427971 10.6847985,21.3443971 10.6973985,21.734997 C10.6973985,21.898797 10.7729985,21.999597 10.9367985,22.075197 C11.0375985,22.125597 11.0375985,22.125597 10.9619985,22.112997 C10.5965986,22.037397 10.5083986,21.5837971 10.7981985,21.2939971 C11.1509985,20.9411971 11.8943984,21.0923971 12.1463983,21.5837971 C12.2471983,21.785397 12.2597983,22.188597 12.1715983,22.4405969 C11.9573984,22.9949969 11.3525985,23.2847968 10.7351985,23.1209969 C10.3193986,23.0075969 10.1429986,22.8941969 9.63899869,22.377597 C8.75699881,21.4703971 8.41679885,21.2939971 7.15679902,21.1049971 L6.91739906,21.0671971 L7.18199902,20.8151972 Z" id="Path" fill-rule="nonzero"></path>
                            <path d="M0.554399924,0.541799926 C3.49019952,4.10759944 8.01359891,9.65159869 8.24039888,9.95399864 C8.42939885,10.2059986 8.35379886,10.4453986 8.0387989,10.6217986 C7.86239893,10.7225985 7.49699898,10.8233985 7.320599,10.8233985 C7.11899903,10.8233985 6.87959906,10.7225985 6.71579909,10.5587986 C6.6023991,10.4453986 6.11099917,9.72719867 5.00219932,8.00099891 C4.15799943,6.67799909 3.43979953,5.58179924 3.42719953,5.56919924 C3.37679954,5.54399924 3.37679954,5.54399924 4.91399933,8.29079887 C5.8841992,10.0169986 6.19919916,10.6343986 6.19919916,10.7099985 C6.19919916,10.8737985 6.14879916,10.9619985 5.94719919,11.1887985 C5.60699924,11.5667984 5.45579926,11.9951984 5.34239927,12.8897982 C5.21639929,13.8851981 4.87619934,14.590798 3.90599947,15.7877978 C3.33899955,16.4933978 3.25079956,16.6193977 3.11219958,16.9091977 C2.9357996,17.2619976 2.88539961,17.4635976 2.86019961,17.9171976 C2.83499961,18.3959975 2.88539961,18.6983975 3.02399959,19.1519974 C3.14999957,19.5551973 3.28859955,19.8197973 3.62879951,20.3363972 C3.91859947,20.7899972 4.09499944,21.1301971 4.09499944,21.2561971 C4.09499944,21.3569971 4.12019944,21.3569971 4.57379938,21.2561971 C5.65739923,21.0041971 6.55199911,20.5757972 7.04339904,20.0465973 C7.345799,19.7189973 7.42139899,19.5425973 7.42139899,19.0889974 C7.42139899,18.7991974 7.40879899,18.7361974 7.333199,18.5597975 C7.20719902,18.2825975 6.96779905,18.0557975 6.45119912,17.7029976 C5.77079921,17.2367977 5.48099925,16.8587977 5.40539926,16.3547978 C5.34239927,15.9263978 5.41799926,15.6365979 5.79599921,14.842798 C6.18659916,14.0237981 6.28739914,13.6835981 6.35039913,12.8519982 C6.38819913,12.3227983 6.45119912,12.1085984 6.6023991,11.9447984 C6.76619908,11.7683984 6.90479906,11.7053984 7.29539901,11.6549984 C7.93799892,11.5667984 8.35379886,11.4029984 8.68139882,11.0879985 C8.97119878,10.8233985 9.09719876,10.5587986 9.10979876,10.1681986 L9.12239876,9.87839865 L8.95859878,9.70199868 C8.36639886,9.02159877 0.163799978,0 0.125999983,0 C0.113399985,0 0.314999957,0.239399967 0.554399924,0.541799926 Z M4.4225994,18.4589975 C4.56119938,18.2195975 4.48559939,17.9171976 4.25879942,17.7659976 C4.04459945,17.6273976 3.71699949,17.6903976 3.71699949,17.8793976 C3.71699949,17.9297976 3.74219949,17.9801976 3.81779948,18.0053975 C3.93119946,18.0683975 3.94379946,18.1313975 3.85559947,18.2699975 C3.76739949,18.4085975 3.76739949,18.5345975 3.88079947,18.6227975 C4.05719945,18.7613974 4.29659941,18.6857975 4.4225994,18.4589975 Z" id="Shape" fill-rule="evenodd"></path>
                            <path d="M9.5255987,11.8313984 C9.22319874,11.9195984 8.93339878,12.2471983 8.84519879,12.5747983 C8.7947988,12.7763983 8.8199988,13.1417982 8.90819879,13.2551982 C9.04679877,13.4315982 9.17279875,13.4819982 9.5255987,13.4819982 C10.2185986,13.4819982 10.8107985,13.1795982 10.8737985,12.8141983 C10.9367985,12.5117983 10.6721985,12.0959984 10.3067986,11.9069984 C10.1177986,11.8061984 9.72719867,11.7683984 9.5255987,11.8313984 Z M10.3319986,12.4613983 C10.4327986,12.3101983 10.3949986,12.1463983 10.2059986,12.0329984 C9.86579866,11.8187984 9.34919873,11.9951984 9.34919873,12.3227983 C9.34919873,12.4865983 9.61379869,12.6629983 9.86579866,12.6629983 C10.0295986,12.6629983 10.2563986,12.5621983 10.3319986,12.4613983 Z" id="Shape" fill-rule="evenodd"></path>
                        </g>
                    </g>
                </g>
            </g>
        </g>
    </g>
</svg>